<svg width="39" height="36" viewBox="0 0 39 36" fill="none" xmlns="http://www.w3.org/2000/svg">
<path opacity="0.7" d="M17.6109 1.43478C18.2335 -0.35634 20.7665 -0.356345 21.3891 1.43478L24.5682 10.5807C24.8429 11.3708 25.5803 11.9066 26.4166 11.9236L36.0973 12.1209C37.9931 12.1595 38.7759 14.5686 37.2648 15.7142L29.549 21.564C28.8824 22.0693 28.6007 22.9362 28.8429 23.7369L31.6468 33.0047C32.1959 34.8197 30.1466 36.3086 28.5901 35.2255L20.6424 29.6949C19.9557 29.2171 19.0443 29.2171 18.3576 29.6949L10.4099 35.2255C8.85338 36.3086 6.80409 34.8197 7.35319 33.0047L10.1571 23.7369C10.3993 22.9362 10.1176 22.0693 9.45104 21.564L1.73517 15.7142C0.224109 14.5686 1.00687 12.1595 2.90272 12.1209L12.5834 11.9236C13.4197 11.9066 14.1571 11.3708 14.4318 10.5807L17.6109 1.43478Z" fill="white"/>
</svg>
